<?xml version="1.0" standalone="no"?>
<!DOCTYPE svg PUBLIC "-//W3C//DTD SVG 20010904//EN"
 "http://www.w3.org/TR/2001/REC-SVG-20010904/DTD/svg10.dtd">
<svg version="1.0" xmlns="http://www.w3.org/2000/svg"
 width="225.000000pt" height="225.000000pt" viewBox="0 0 225.000000 225.000000"
 preserveAspectRatio="xMidYMid meet">

<g transform="translate(0.000000,225.000000) scale(0.100000,-0.100000)"
fill="#000000" stroke="none">
<path d="M0 1125 l0 -1125 1125 0 1125 0 0 1125 0 1126 -156 -2 c-148 -1 -156
-2 -151 -20 6 -21 -8 -26 -16 -6 -3 6 -6 -3 -6 -20 -1 -31 -8 -38 -38 -34 -7
1 -13 -3 -13 -9 0 -5 5 -10 10 -10 6 0 10 -7 10 -15 0 -18 -16 -20 -23 -2 -3
6 -6 -1 -6 -18 -1 -17 -5 -25 -9 -18 -4 6 -8 -8 -9 -30 -3 -50 -7 -77 -16 -97
-7 -18 -18 -100 -20 -157 -1 -28 -6 -43 -15 -43 -9 0 -11 -9 -7 -32 3 -18 8
-64 11 -103 2 -38 6 -86 8 -105 4 -43 -9 -130 -16 -110 -3 8 -11 53 -18 100
-10 75 -29 186 -61 345 -5 28 -6 73 -3 100 6 43 5 48 -7 38 -12 -10 -14 -3
-13 45 1 47 5 59 28 77 18 15 26 30 26 53 0 36 -15 43 -25 12 -11 -34 -25 -22
-25 20 0 30 -4 40 -16 40 -14 0 -16 -12 -11 -97 l6 -98 -14 65 c-7 36 -14 80
-14 98 l-1 32 -71 0 -71 0 8 -237 c12 -375 10 -452 -18 -509 -7 -15 -7 -28 2
-44 15 -28 6 -36 -23 -22 -12 6 -35 13 -52 17 -28 6 -29 5 -14 -12 9 -10 19
-26 22 -36 4 -9 27 -30 52 -46 25 -16 42 -32 36 -35 -5 -3 -43 -1 -85 5 -42 5
-80 7 -86 4 -15 -9 -60 6 -60 21 0 8 5 14 11 14 23 0 -12 29 -39 32 -24 3 -27
7 -26 38 2 50 35 213 47 228 5 6 21 18 36 25 37 18 50 65 50 193 1 61 8 155
16 210 19 124 19 133 -1 141 -22 8 -63 -34 -70 -74 -3 -18 -10 -36 -15 -39 -5
-3 -9 -22 -10 -42 0 -20 -4 -46 -9 -57 -6 -13 -9 23 -7 103 l2 122 -79 0 c-69
0 -77 -2 -66 -15 10 -12 9 -15 -4 -15 -9 0 -19 7 -22 15 -5 12 -84 14 -550 15
l-544 0 0 -1125z m1267 843 c-3 -8 -6 -5 -6 6 -1 11 2 17 5 13 3 -3 4 -12 1
-19z m503 -633 c0 -7 9 -20 20 -30 11 -10 17 -22 14 -26 -3 -5 0 -9 7 -9 7 0
33 -21 58 -47 25 -27 57 -55 71 -64 14 -9 22 -20 19 -23 -8 -8 -89 32 -89 44
0 4 -12 11 -26 14 -21 6 -23 10 -14 21 9 11 7 12 -8 9 -10 -3 -24 2 -31 10 -8
9 -23 16 -35 16 -15 0 -17 3 -8 9 10 6 4 15 -22 34 -19 15 -36 37 -38 49 -2
17 -9 22 -23 20 -13 -3 -17 0 -10 6 27 28 115 2 115 -33z m-514 13 c3 -13 13
-31 21 -40 8 -9 12 -22 8 -28 -4 -7 -1 -16 6 -21 23 -14 32 -10 18 8 -13 15
-12 16 6 8 22 -9 29 -9 125 0 82 7 150 -2 150 -20 0 -7 12 -16 28 -20 15 -3
56 -23 92 -45 36 -22 82 -49 103 -60 22 -12 36 -24 33 -27 -3 -3 -16 1 -28 9
-13 8 -46 18 -75 21 -28 3 -61 12 -72 19 -16 9 -28 10 -50 1 -29 -11 -169 4
-215 23 -17 7 -17 5 3 -22 37 -50 172 -105 210 -85 21 12 89 15 78 5 -3 -3
-34 -12 -69 -20 -61 -13 -128 -10 -128 6 0 4 -14 10 -32 14 -37 7 -91 46 -136
98 -19 21 -39 38 -45 38 -19 0 -134 57 -142 71 -5 7 -1 18 11 28 11 9 18 24
16 33 -2 12 2 15 16 11 11 -2 23 0 26 6 12 19 34 12 42 -11z m-872 -335 c-4
-15 -7 -33 -7 -40 0 -14 -10 -17 -20 -6 -4 3 -2 12 4 20 6 7 8 13 5 13 -4 0
-2 9 4 20 15 28 22 25 14 -7z m-84 -113 c0 -5 -5 -10 -11 -10 -5 0 -7 5 -4 10
3 6 8 10 11 10 2 0 4 -4 4 -10z m70 -60 c0 -5 -4 -10 -10 -10 -5 0 -10 5 -10
10 0 6 5 10 10 10 6 0 10 -4 10 -10z m204 -699 c-3 -3 -15 6 -27 18 l-22 24
27 -19 c14 -10 24 -21 22 -23z"/>
<path d="M1402 1215 c12 -14 38 -19 107 -22 55 -3 91 -1 91 5 0 14 -25 22 -93
29 -45 5 -61 3 -68 -8 -7 -12 -12 -12 -31 0 -22 12 -22 12 -6 -4z"/>
<path d="M1424 2200 c3 -19 1 -30 -6 -30 -7 0 -9 -14 -5 -40 3 -22 1 -40 -4
-40 -5 0 -9 -7 -9 -15 0 -32 18 -13 29 29 14 58 14 126 0 126 -7 0 -9 -11 -5
-30z"/>
<path d="M1752 1988 c-7 -7 -12 -22 -12 -35 0 -17 6 -23 21 -23 17 0 19 3 10
14 -9 10 -8 16 4 26 8 7 12 16 9 21 -7 12 -18 11 -32 -3z"/>
</g>
</svg>
